<svg width="210" height="255" viewBox="0 0 210 255" fill="none" xmlns="http://www.w3.org/2000/svg">
<path d="M98.0217 200.392L14.2081 55.2217L0.000488281 63.822V190.628L76.0636 236.669L98.0217 200.392Z" fill="url(#paint0_radial_72_160)"/>
<path d="M104.748 0.415283L21.9229 50.5575L36.9526 76.5893H209.504V63.8228L104.748 0.415283Z" fill="url(#paint1_radial_72_160)"/>
<path style="mix-blend-mode:overlay" d="M3.91677 187.686L2.60498 65.0923L75.1579 232.775L3.91677 187.686Z" fill="url(#paint2_linear_72_160)"/>
<path style="mix-blend-mode:overlay" d="M106.144 10.6885L33.1201 52.7939L203.565 66.1886L106.144 10.6885Z" fill="url(#paint3_linear_72_160)"/>
<path style="mix-blend-mode:lighten" d="M199.797 67.6788C200.166 67.097 178.215 52.5326 150.769 35.1483C123.323 17.764 100.775 4.14295 100.406 4.7248C100.038 5.30666 121.988 19.8711 149.434 37.2553C176.881 54.6396 199.429 68.2607 199.797 67.6788Z" fill="url(#paint4_radial_72_160)"/>
<path d="M83.7764 241.337L104.746 254.029L209.501 190.631V85.6074H178.038L83.7764 241.337Z" fill="url(#paint5_linear_72_160)"/>
<path style="mix-blend-mode:overlay" d="M205.038 188.755L206.091 90.8539L104.827 250.13L205.038 188.755Z" fill="url(#paint6_linear_72_160)"/>
<path style="mix-blend-mode:lighten" d="M206.091 140.509C206.514 113.222 206.3 91.0934 205.611 91.0827C204.922 91.072 204.021 113.183 203.597 140.47C203.173 167.756 203.387 189.885 204.076 189.896C204.765 189.906 205.667 167.795 206.091 140.509Z" fill="url(#paint7_radial_72_160)"/>
<path style="mix-blend-mode:lighten" d="M162.741 215.037C185.818 200.471 204.228 188.19 203.86 187.608C203.492 187.025 184.487 198.361 161.409 212.928C138.332 227.494 119.923 239.774 120.29 240.357C120.658 240.939 139.664 229.603 162.741 215.037Z" fill="url(#paint8_radial_72_160)"/>
<path d="M83.7764 241.337L104.746 254.029L209.501 190.631V85.6074H178.038L83.7764 241.337Z" fill="url(#paint9_linear_72_160)"/>
<path style="mix-blend-mode:overlay" d="M205.038 188.755L206.091 90.8539L104.827 250.13L205.038 188.755Z" fill="url(#paint10_linear_72_160)"/>
<path style="mix-blend-mode:lighten" d="M206.091 140.509C206.514 113.222 206.3 91.0934 205.611 91.0827C204.922 91.072 204.021 113.183 203.597 140.47C203.173 167.756 203.387 189.885 204.076 189.896C204.765 189.906 205.667 167.795 206.091 140.509Z" fill="url(#paint11_radial_72_160)"/>
<path style="mix-blend-mode:lighten" d="M162.741 215.037C185.818 200.471 204.228 188.19 203.86 187.608C203.492 187.025 184.487 198.361 161.409 212.928C138.332 227.494 119.923 239.774 120.29 240.357C120.658 240.939 139.664 229.603 162.741 215.037Z" fill="url(#paint12_radial_72_160)"/>
<path d="M83.7764 241.337L104.746 254.029L209.501 190.631V85.6074H178.038L83.7764 241.337Z" fill="url(#paint13_linear_72_160)"/>
<path style="mix-blend-mode:overlay" d="M205.038 188.755L206.091 90.8539L104.827 250.13L205.038 188.755Z" fill="url(#paint14_linear_72_160)"/>
<path style="mix-blend-mode:lighten" d="M206.091 140.509C206.514 113.222 206.3 91.0934 205.611 91.0827C204.922 91.072 204.021 113.183 203.597 140.47C203.173 167.756 203.387 189.885 204.076 189.896C204.765 189.906 205.667 167.795 206.091 140.509Z" fill="url(#paint15_radial_72_160)"/>
<path style="mix-blend-mode:lighten" d="M162.741 215.037C185.818 200.471 204.228 188.19 203.86 187.608C203.492 187.025 184.487 198.361 161.409 212.928C138.332 227.494 119.923 239.774 120.29 240.357C120.658 240.939 139.664 229.603 162.741 215.037Z" fill="url(#paint16_radial_72_160)"/>
<path d="M83.7764 241.337L104.746 254.029L209.501 190.631V85.6074H178.038L83.7764 241.337Z" fill="url(#paint17_linear_72_160)"/>
<path style="mix-blend-mode:overlay" d="M205.038 188.755L206.091 90.8539L104.827 250.13L205.038 188.755Z" fill="url(#paint18_linear_72_160)"/>
<path style="mix-blend-mode:lighten" d="M206.091 140.509C206.514 113.222 206.3 91.0934 205.611 91.0827C204.922 91.072 204.021 113.183 203.597 140.47C203.173 167.756 203.387 189.885 204.076 189.896C204.765 189.906 205.667 167.795 206.091 140.509Z" fill="url(#paint19_radial_72_160)"/>
<path style="mix-blend-mode:lighten" d="M162.741 215.037C185.818 200.471 204.228 188.19 203.86 187.608C203.492 187.025 184.487 198.361 161.409 212.928C138.332 227.494 119.923 239.774 120.29 240.357C120.658 240.939 139.664 229.603 162.741 215.037Z" fill="url(#paint20_radial_72_160)"/>
<path d="M83.7764 241.337L104.746 254.029L209.501 190.631V85.6074H178.038L83.7764 241.337Z" fill="url(#paint21_linear_72_160)"/>
<path style="mix-blend-mode:overlay" d="M205.038 188.755L206.091 90.8539L104.827 250.13L205.038 188.755Z" fill="url(#paint22_linear_72_160)"/>
<path style="mix-blend-mode:lighten" d="M206.091 140.509C206.514 113.222 206.3 91.0934 205.611 91.0827C204.922 91.072 204.021 113.183 203.597 140.47C203.173 167.756 203.387 189.885 204.076 189.896C204.765 189.906 205.667 167.795 206.091 140.509Z" fill="url(#paint23_radial_72_160)"/>
<path style="mix-blend-mode:lighten" d="M162.741 215.037C185.818 200.471 204.228 188.19 203.86 187.608C203.492 187.025 184.487 198.361 161.409 212.928C138.332 227.494 119.923 239.774 120.29 240.357C120.658 240.939 139.664 229.603 162.741 215.037Z" fill="url(#paint24_radial_72_160)"/>
<path d="M83.7764 241.337L104.746 254.029L209.501 190.631V85.6074H178.038L83.7764 241.337Z" fill="url(#paint25_linear_72_160)"/>
<path style="mix-blend-mode:overlay" d="M205.038 188.755L206.091 90.8539L104.827 250.13L205.038 188.755Z" fill="url(#paint26_linear_72_160)"/>
<path style="mix-blend-mode:lighten" d="M206.091 140.509C206.514 113.222 206.3 91.0934 205.611 91.0827C204.922 91.072 204.021 113.183 203.597 140.47C203.173 167.756 203.387 189.885 204.076 189.896C204.765 189.906 205.667 167.795 206.091 140.509Z" fill="url(#paint27_radial_72_160)"/>
<path style="mix-blend-mode:lighten" d="M162.741 215.037C185.818 200.471 204.228 188.19 203.86 187.608C203.492 187.025 184.487 198.361 161.409 212.928C138.332 227.494 119.923 239.774 120.29 240.357C120.658 240.939 139.664 229.603 162.741 215.037Z" fill="url(#paint28_radial_72_160)"/>
<path d="M83.7764 241.337L104.746 254.029L209.501 190.631V85.6074H178.038L83.7764 241.337Z" fill="url(#paint29_linear_72_160)"/>
<path style="mix-blend-mode:overlay" d="M205.038 188.755L206.091 90.8539L104.827 250.13L205.038 188.755Z" fill="url(#paint30_linear_72_160)"/>
<path style="mix-blend-mode:lighten" d="M206.091 140.509C206.514 113.222 206.3 91.0934 205.611 91.0827C204.922 91.072 204.021 113.183 203.597 140.47C203.173 167.756 203.387 189.885 204.076 189.896C204.765 189.906 205.667 167.795 206.091 140.509Z" fill="url(#paint31_radial_72_160)"/>
<path style="mix-blend-mode:lighten" d="M162.741 215.037C185.818 200.471 204.228 188.19 203.86 187.608C203.492 187.025 184.487 198.361 161.409 212.928C138.332 227.494 119.923 239.774 120.29 240.357C120.658 240.939 139.664 229.603 162.741 215.037Z" fill="url(#paint32_radial_72_160)"/>
<path d="M83.7764 241.337L104.746 254.029L209.501 190.631V85.6074H178.038L83.7764 241.337Z" fill="url(#paint33_linear_72_160)"/>
<path style="mix-blend-mode:overlay" d="M205.038 188.755L206.091 90.8539L104.827 250.13L205.038 188.755Z" fill="url(#paint34_linear_72_160)"/>
<path style="mix-blend-mode:lighten" d="M206.091 140.509C206.514 113.222 206.3 91.0934 205.611 91.0827C204.922 91.072 204.021 113.183 203.597 140.47C203.173 167.756 203.387 189.885 204.076 189.896C204.765 189.906 205.667 167.795 206.091 140.509Z" fill="url(#paint35_radial_72_160)"/>
<path style="mix-blend-mode:lighten" d="M162.741 215.037C185.818 200.471 204.228 188.19 203.86 187.608C203.492 187.025 184.487 198.361 161.409 212.928C138.332 227.494 119.923 239.774 120.29 240.357C120.658 240.939 139.664 229.603 162.741 215.037Z" fill="url(#paint36_radial_72_160)"/>
<path d="M83.7764 241.337L104.746 254.029L209.501 190.631V85.6074H178.038L83.7764 241.337Z" fill="url(#paint37_linear_72_160)"/>
<path style="mix-blend-mode:overlay" d="M205.038 188.755L206.091 90.8539L104.827 250.13L205.038 188.755Z" fill="url(#paint38_linear_72_160)"/>
<path style="mix-blend-mode:lighten" d="M206.091 140.509C206.514 113.222 206.3 91.0934 205.611 91.0827C204.922 91.072 204.021 113.183 203.597 140.47C203.173 167.756 203.387 189.885 204.076 189.896C204.765 189.906 205.667 167.795 206.091 140.509Z" fill="url(#paint39_radial_72_160)"/>
<path style="mix-blend-mode:lighten" d="M162.741 215.037C185.818 200.471 204.228 188.19 203.86 187.608C203.492 187.025 184.487 198.361 161.409 212.928C138.332 227.494 119.923 239.774 120.29 240.357C120.658 240.939 139.664 229.603 162.741 215.037Z" fill="url(#paint40_radial_72_160)"/>
<path d="M83.7764 241.337L104.746 254.029L209.501 190.631V85.6074H178.038L83.7764 241.337Z" fill="url(#paint41_linear_72_160)"/>
<path style="mix-blend-mode:overlay" d="M205.038 188.755L206.091 90.8539L104.827 250.13L205.038 188.755Z" fill="url(#paint42_linear_72_160)"/>
<path style="mix-blend-mode:lighten" d="M206.091 140.509C206.514 113.222 206.3 91.0934 205.611 91.0827C204.922 91.072 204.021 113.183 203.597 140.47C203.173 167.756 203.387 189.885 204.076 189.896C204.765 189.906 205.667 167.795 206.091 140.509Z" fill="url(#paint43_radial_72_160)"/>
<path style="mix-blend-mode:lighten" d="M162.741 215.037C185.818 200.471 204.228 188.19 203.86 187.608C203.492 187.025 184.487 198.361 161.409 212.928C138.332 227.494 119.923 239.774 120.29 240.357C120.658 240.939 139.664 229.603 162.741 215.037Z" fill="url(#paint44_radial_72_160)"/>
<path d="M83.7764 241.337L104.746 254.029L209.501 190.631V85.6074H178.038L83.7764 241.337Z" fill="url(#paint45_linear_72_160)"/>
<path style="mix-blend-mode:overlay" d="M205.038 188.755L206.091 90.8539L104.827 250.13L205.038 188.755Z" fill="url(#paint46_linear_72_160)"/>
<path style="mix-blend-mode:lighten" d="M206.091 140.509C206.514 113.222 206.3 91.0934 205.611 91.0827C204.922 91.072 204.021 113.183 203.597 140.47C203.173 167.756 203.387 189.885 204.076 189.896C204.765 189.906 205.667 167.795 206.091 140.509Z" fill="url(#paint47_radial_72_160)"/>
<path style="mix-blend-mode:lighten" d="M162.741 215.037C185.818 200.471 204.228 188.19 203.86 187.608C203.492 187.025 184.487 198.361 161.409 212.928C138.332 227.494 119.923 239.774 120.29 240.357C120.658 240.939 139.664 229.603 162.741 215.037Z" fill="url(#paint48_radial_72_160)"/>
<path style="mix-blend-mode:lighten" d="M3.39941 187.968C4.08816 187.968 4.64659 165.845 4.64659 138.555C4.64659 111.266 4.08816 89.1428 3.39941 89.1428C2.71066 89.1428 2.15234 111.266 2.15234 138.555C2.15234 165.845 2.71066 187.968 3.39941 187.968Z" fill="url(#paint49_radial_72_160)"/>
<path style="mix-blend-mode:lighten" d="M73.747 231.67C74.1146 231.088 58.6987 220.697 39.3146 208.462C19.9305 196.227 3.91852 186.78 3.55089 187.363C3.18326 187.945 18.5992 198.336 37.9833 210.571C57.3674 222.806 73.3793 232.253 73.747 231.67Z" fill="url(#paint50_radial_72_160)"/>
<path style="mix-blend-mode:lighten" d="M68.6573 33.9696C89.5344 21.3261 106.169 10.5988 105.812 10.0097C105.456 9.42056 88.2423 19.1926 67.3653 31.8362C46.4882 44.4798 29.8532 55.2071 30.21 55.7962C30.5668 56.3853 47.7803 46.6132 68.6573 33.9696Z" fill="url(#paint51_radial_72_160)"/>
<defs>
<radialGradient id="paint0_radial_72_160" cx="0" cy="0" r="1" gradientUnits="userSpaceOnUse" gradientTransform="translate(49.0157 145.945) scale(72.9131 72.9131)">
<stop offset="0.19" stop-color="#00E949"/>
<stop offset="0.37" stop-color="#0BE23E"/>
<stop offset="0.7" stop-color="#2BD122"/>
<stop offset="1" stop-color="#4DC005"/>
</radialGradient>
<radialGradient id="paint1_radial_72_160" cx="0" cy="0" r="1" gradientUnits="userSpaceOnUse" gradientTransform="translate(115.713 38.5023) scale(72.7469 72.7469)">
<stop offset="0.13" stop-color="#FFEE00"/>
<stop offset="0.2" stop-color="#FFE203"/>
<stop offset="0.33" stop-color="#FFC50E"/>
<stop offset="0.5" stop-color="#FF951F"/>
<stop offset="0.7" stop-color="#FF5337"/>
<stop offset="0.8" stop-color="#FF2E45"/>
</radialGradient>
<linearGradient id="paint2_linear_72_160" x1="62.1305" y1="-29.8594" x2="187.409" y2="52.4956" gradientUnits="userSpaceOnUse">
<stop stop-color="white"/>
<stop offset="0.08" stop-color="white" stop-opacity="0.64"/>
<stop offset="0.17" stop-color="white" stop-opacity="0.3844"/>
<stop offset="0.26" stop-color="white" stop-opacity="0.2025"/>
<stop offset="0.36" stop-color="white" stop-opacity="0.0961"/>
<stop offset="0.46" stop-color="white" stop-opacity="0.04"/>
<stop offset="0.57" stop-color="white" stop-opacity="0.0121"/>
<stop offset="0.68" stop-color="white" stop-opacity="0.01"/>
<stop offset="0.82" stop-color="white" stop-opacity="0.01"/>
<stop offset="1" stop-color="white" stop-opacity="0"/>
</linearGradient>
<linearGradient id="paint3_linear_72_160" x1="-114.12" y1="342.983" x2="27.9782" y2="409.184" gradientUnits="userSpaceOnUse">
<stop stop-color="white"/>
<stop offset="0.08" stop-color="white" stop-opacity="0.64"/>
<stop offset="0.17" stop-color="white" stop-opacity="0.3844"/>
<stop offset="0.26" stop-color="white" stop-opacity="0.2025"/>
<stop offset="0.36" stop-color="white" stop-opacity="0.0961"/>
<stop offset="0.46" stop-color="white" stop-opacity="0.04"/>
<stop offset="0.57" stop-color="white" stop-opacity="0.0121"/>
<stop offset="0.68" stop-color="white" stop-opacity="0.01"/>
<stop offset="0.82" stop-color="white" stop-opacity="0.01"/>
<stop offset="1" stop-color="white" stop-opacity="0"/>
</linearGradient>
<radialGradient id="paint4_radial_72_160" cx="0" cy="0" r="1" gradientUnits="userSpaceOnUse" gradientTransform="translate(42.3076 19.6406) rotate(-147.65) scale(99.1375 2.06533)">
<stop stop-color="white"/>
<stop offset="0.5" stop-color="#282847"/>
<stop offset="1" stop-color="#050B10"/>
</radialGradient>
<linearGradient id="paint5_linear_72_160" x1="83.7764" y1="169.818" x2="209.502" y2="169.818" gradientUnits="userSpaceOnUse">
<stop stop-color="#00E6E3"/>
<stop offset="0.5" stop-color="#0A4FE0" stop-opacity="0.8"/>
</linearGradient>
<linearGradient id="paint6_linear_72_160" x1="377.148" y1="361.442" x2="235.98" y2="454.242" gradientUnits="userSpaceOnUse">
<stop stop-color="white"/>
<stop offset="0.08" stop-color="white" stop-opacity="0.64"/>
<stop offset="0.17" stop-color="white" stop-opacity="0.3844"/>
<stop offset="0.26" stop-color="white" stop-opacity="0.2025"/>
<stop offset="0.36" stop-color="white" stop-opacity="0.0961"/>
<stop offset="0.46" stop-color="white" stop-opacity="0.04"/>
<stop offset="0.57" stop-color="white" stop-opacity="0.0121"/>
<stop offset="0.68" stop-color="white" stop-opacity="0.01"/>
<stop offset="0.82" stop-color="white" stop-opacity="0.01"/>
<stop offset="1" stop-color="white" stop-opacity="0"/>
</linearGradient>
<radialGradient id="paint7_radial_72_160" cx="0" cy="0" r="1" gradientUnits="userSpaceOnUse" gradientTransform="translate(203.998 243.871) rotate(-89.11) scale(82.6147 2.06537)">
<stop stop-color="white"/>
<stop offset="0.5" stop-color="#282847"/>
<stop offset="1" stop-color="#050B10"/>
</radialGradient>
<radialGradient id="paint8_radial_72_160" cx="0" cy="0" r="1" gradientUnits="userSpaceOnUse" gradientTransform="translate(98.5656 289.555) rotate(-32.26) scale(82.6146 2.06535)">
<stop stop-color="white"/>
<stop offset="0.5" stop-color="#282847"/>
<stop offset="1" stop-color="#050B10"/>
</radialGradient>
<linearGradient id="paint9_linear_72_160" x1="83.7764" y1="169.818" x2="209.502" y2="169.818" gradientUnits="userSpaceOnUse">
<stop stop-color="#00E6E3"/>
<stop offset="0.5" stop-color="#0A4FE0" stop-opacity="0.8"/>
</linearGradient>
<linearGradient id="paint10_linear_72_160" x1="377.148" y1="361.442" x2="235.98" y2="454.242" gradientUnits="userSpaceOnUse">
<stop stop-color="white"/>
<stop offset="0.08" stop-color="white" stop-opacity="0.64"/>
<stop offset="0.17" stop-color="white" stop-opacity="0.3844"/>
<stop offset="0.26" stop-color="white" stop-opacity="0.2025"/>
<stop offset="0.36" stop-color="white" stop-opacity="0.0961"/>
<stop offset="0.46" stop-color="white" stop-opacity="0.04"/>
<stop offset="0.57" stop-color="white" stop-opacity="0.0121"/>
<stop offset="0.68" stop-color="white" stop-opacity="0.01"/>
<stop offset="0.82" stop-color="white" stop-opacity="0.01"/>
<stop offset="1" stop-color="white" stop-opacity="0"/>
</linearGradient>
<radialGradient id="paint11_radial_72_160" cx="0" cy="0" r="1" gradientUnits="userSpaceOnUse" gradientTransform="translate(203.998 243.871) rotate(-89.11) scale(82.6147 2.06537)">
<stop stop-color="white"/>
<stop offset="0.5" stop-color="#282847"/>
<stop offset="1" stop-color="#050B10"/>
</radialGradient>
<radialGradient id="paint12_radial_72_160" cx="0" cy="0" r="1" gradientUnits="userSpaceOnUse" gradientTransform="translate(98.5656 289.555) rotate(-32.26) scale(82.6146 2.06535)">
<stop stop-color="white"/>
<stop offset="0.5" stop-color="#282847"/>
<stop offset="1" stop-color="#050B10"/>
</radialGradient>
<linearGradient id="paint13_linear_72_160" x1="83.7764" y1="169.818" x2="209.502" y2="169.818" gradientUnits="userSpaceOnUse">
<stop stop-color="#00E6E3"/>
<stop offset="0.5" stop-color="#0A4FE0" stop-opacity="0.8"/>
</linearGradient>
<linearGradient id="paint14_linear_72_160" x1="377.148" y1="361.442" x2="235.98" y2="454.242" gradientUnits="userSpaceOnUse">
<stop stop-color="white"/>
<stop offset="0.08" stop-color="white" stop-opacity="0.64"/>
<stop offset="0.17" stop-color="white" stop-opacity="0.3844"/>
<stop offset="0.26" stop-color="white" stop-opacity="0.2025"/>
<stop offset="0.36" stop-color="white" stop-opacity="0.0961"/>
<stop offset="0.46" stop-color="white" stop-opacity="0.04"/>
<stop offset="0.57" stop-color="white" stop-opacity="0.0121"/>
<stop offset="0.68" stop-color="white" stop-opacity="0.01"/>
<stop offset="0.82" stop-color="white" stop-opacity="0.01"/>
<stop offset="1" stop-color="white" stop-opacity="0"/>
</linearGradient>
<radialGradient id="paint15_radial_72_160" cx="0" cy="0" r="1" gradientUnits="userSpaceOnUse" gradientTransform="translate(203.998 243.871) rotate(-89.11) scale(82.6147 2.06537)">
<stop stop-color="white"/>
<stop offset="0.5" stop-color="#282847"/>
<stop offset="1" stop-color="#050B10"/>
</radialGradient>
<radialGradient id="paint16_radial_72_160" cx="0" cy="0" r="1" gradientUnits="userSpaceOnUse" gradientTransform="translate(98.5656 289.555) rotate(-32.26) scale(82.6146 2.06535)">
<stop stop-color="white"/>
<stop offset="0.5" stop-color="#282847"/>
<stop offset="1" stop-color="#050B10"/>
</radialGradient>
<linearGradient id="paint17_linear_72_160" x1="83.7764" y1="169.818" x2="209.502" y2="169.818" gradientUnits="userSpaceOnUse">
<stop stop-color="#00E6E3"/>
<stop offset="0.5" stop-color="#0A4FE0" stop-opacity="0.8"/>
</linearGradient>
<linearGradient id="paint18_linear_72_160" x1="377.148" y1="361.442" x2="235.98" y2="454.242" gradientUnits="userSpaceOnUse">
<stop stop-color="white"/>
<stop offset="0.08" stop-color="white" stop-opacity="0.64"/>
<stop offset="0.17" stop-color="white" stop-opacity="0.3844"/>
<stop offset="0.26" stop-color="white" stop-opacity="0.2025"/>
<stop offset="0.36" stop-color="white" stop-opacity="0.0961"/>
<stop offset="0.46" stop-color="white" stop-opacity="0.04"/>
<stop offset="0.57" stop-color="white" stop-opacity="0.0121"/>
<stop offset="0.68" stop-color="white" stop-opacity="0.01"/>
<stop offset="0.82" stop-color="white" stop-opacity="0.01"/>
<stop offset="1" stop-color="white" stop-opacity="0"/>
</linearGradient>
<radialGradient id="paint19_radial_72_160" cx="0" cy="0" r="1" gradientUnits="userSpaceOnUse" gradientTransform="translate(203.998 243.871) rotate(-89.11) scale(82.6147 2.06537)">
<stop stop-color="white"/>
<stop offset="0.5" stop-color="#282847"/>
<stop offset="1" stop-color="#050B10"/>
</radialGradient>
<radialGradient id="paint20_radial_72_160" cx="0" cy="0" r="1" gradientUnits="userSpaceOnUse" gradientTransform="translate(98.5656 289.555) rotate(-32.26) scale(82.6146 2.06535)">
<stop stop-color="white"/>
<stop offset="0.5" stop-color="#282847"/>
<stop offset="1" stop-color="#050B10"/>
</radialGradient>
<linearGradient id="paint21_linear_72_160" x1="83.7764" y1="169.818" x2="209.502" y2="169.818" gradientUnits="userSpaceOnUse">
<stop stop-color="#00E6E3"/>
<stop offset="0.5" stop-color="#0A4FE0" stop-opacity="0.8"/>
</linearGradient>
<linearGradient id="paint22_linear_72_160" x1="377.148" y1="361.442" x2="235.98" y2="454.242" gradientUnits="userSpaceOnUse">
<stop stop-color="white"/>
<stop offset="0.08" stop-color="white" stop-opacity="0.64"/>
<stop offset="0.17" stop-color="white" stop-opacity="0.3844"/>
<stop offset="0.26" stop-color="white" stop-opacity="0.2025"/>
<stop offset="0.36" stop-color="white" stop-opacity="0.0961"/>
<stop offset="0.46" stop-color="white" stop-opacity="0.04"/>
<stop offset="0.57" stop-color="white" stop-opacity="0.0121"/>
<stop offset="0.68" stop-color="white" stop-opacity="0.01"/>
<stop offset="0.82" stop-color="white" stop-opacity="0.01"/>
<stop offset="1" stop-color="white" stop-opacity="0"/>
</linearGradient>
<radialGradient id="paint23_radial_72_160" cx="0" cy="0" r="1" gradientUnits="userSpaceOnUse" gradientTransform="translate(203.998 243.871) rotate(-89.11) scale(82.6147 2.06537)">
<stop stop-color="white"/>
<stop offset="0.5" stop-color="#282847"/>
<stop offset="1" stop-color="#050B10"/>
</radialGradient>
<radialGradient id="paint24_radial_72_160" cx="0" cy="0" r="1" gradientUnits="userSpaceOnUse" gradientTransform="translate(98.5656 289.555) rotate(-32.26) scale(82.6146 2.06535)">
<stop stop-color="white"/>
<stop offset="0.5" stop-color="#282847"/>
<stop offset="1" stop-color="#050B10"/>
</radialGradient>
<linearGradient id="paint25_linear_72_160" x1="83.7764" y1="169.818" x2="209.502" y2="169.818" gradientUnits="userSpaceOnUse">
<stop stop-color="#00E6E3"/>
<stop offset="0.5" stop-color="#0A4FE0" stop-opacity="0.8"/>
</linearGradient>
<linearGradient id="paint26_linear_72_160" x1="377.148" y1="361.442" x2="235.98" y2="454.242" gradientUnits="userSpaceOnUse">
<stop stop-color="white"/>
<stop offset="0.08" stop-color="white" stop-opacity="0.64"/>
<stop offset="0.17" stop-color="white" stop-opacity="0.3844"/>
<stop offset="0.26" stop-color="white" stop-opacity="0.2025"/>
<stop offset="0.36" stop-color="white" stop-opacity="0.0961"/>
<stop offset="0.46" stop-color="white" stop-opacity="0.04"/>
<stop offset="0.57" stop-color="white" stop-opacity="0.0121"/>
<stop offset="0.68" stop-color="white" stop-opacity="0.01"/>
<stop offset="0.82" stop-color="white" stop-opacity="0.01"/>
<stop offset="1" stop-color="white" stop-opacity="0"/>
</linearGradient>
<radialGradient id="paint27_radial_72_160" cx="0" cy="0" r="1" gradientUnits="userSpaceOnUse" gradientTransform="translate(203.998 243.871) rotate(-89.11) scale(82.6147 2.06537)">
<stop stop-color="white"/>
<stop offset="0.5" stop-color="#282847"/>
<stop offset="1" stop-color="#050B10"/>
</radialGradient>
<radialGradient id="paint28_radial_72_160" cx="0" cy="0" r="1" gradientUnits="userSpaceOnUse" gradientTransform="translate(98.5656 289.555) rotate(-32.26) scale(82.6146 2.06535)">
<stop stop-color="white"/>
<stop offset="0.5" stop-color="#282847"/>
<stop offset="1" stop-color="#050B10"/>
</radialGradient>
<linearGradient id="paint29_linear_72_160" x1="83.7764" y1="169.818" x2="209.502" y2="169.818" gradientUnits="userSpaceOnUse">
<stop stop-color="#00E6E3"/>
<stop offset="0.5" stop-color="#0A4FE0" stop-opacity="0.8"/>
</linearGradient>
<linearGradient id="paint30_linear_72_160" x1="377.148" y1="361.442" x2="235.98" y2="454.242" gradientUnits="userSpaceOnUse">
<stop stop-color="white"/>
<stop offset="0.08" stop-color="white" stop-opacity="0.64"/>
<stop offset="0.17" stop-color="white" stop-opacity="0.3844"/>
<stop offset="0.26" stop-color="white" stop-opacity="0.2025"/>
<stop offset="0.36" stop-color="white" stop-opacity="0.0961"/>
<stop offset="0.46" stop-color="white" stop-opacity="0.04"/>
<stop offset="0.57" stop-color="white" stop-opacity="0.0121"/>
<stop offset="0.68" stop-color="white" stop-opacity="0.01"/>
<stop offset="0.82" stop-color="white" stop-opacity="0.01"/>
<stop offset="1" stop-color="white" stop-opacity="0"/>
</linearGradient>
<radialGradient id="paint31_radial_72_160" cx="0" cy="0" r="1" gradientUnits="userSpaceOnUse" gradientTransform="translate(203.998 243.871) rotate(-89.11) scale(82.6147 2.06537)">
<stop stop-color="white"/>
<stop offset="0.5" stop-color="#282847"/>
<stop offset="1" stop-color="#050B10"/>
</radialGradient>
<radialGradient id="paint32_radial_72_160" cx="0" cy="0" r="1" gradientUnits="userSpaceOnUse" gradientTransform="translate(98.5656 289.555) rotate(-32.26) scale(82.6146 2.06535)">
<stop stop-color="white"/>
<stop offset="0.5" stop-color="#282847"/>
<stop offset="1" stop-color="#050B10"/>
</radialGradient>
<linearGradient id="paint33_linear_72_160" x1="83.7764" y1="169.818" x2="209.502" y2="169.818" gradientUnits="userSpaceOnUse">
<stop stop-color="#00E6E3"/>
<stop offset="0.5" stop-color="#0A4FE0" stop-opacity="0.8"/>
</linearGradient>
<linearGradient id="paint34_linear_72_160" x1="377.148" y1="361.442" x2="235.98" y2="454.242" gradientUnits="userSpaceOnUse">
<stop stop-color="white"/>
<stop offset="0.08" stop-color="white" stop-opacity="0.64"/>
<stop offset="0.17" stop-color="white" stop-opacity="0.3844"/>
<stop offset="0.26" stop-color="white" stop-opacity="0.2025"/>
<stop offset="0.36" stop-color="white" stop-opacity="0.0961"/>
<stop offset="0.46" stop-color="white" stop-opacity="0.04"/>
<stop offset="0.57" stop-color="white" stop-opacity="0.0121"/>
<stop offset="0.68" stop-color="white" stop-opacity="0.01"/>
<stop offset="0.82" stop-color="white" stop-opacity="0.01"/>
<stop offset="1" stop-color="white" stop-opacity="0"/>
</linearGradient>
<radialGradient id="paint35_radial_72_160" cx="0" cy="0" r="1" gradientUnits="userSpaceOnUse" gradientTransform="translate(203.998 243.871) rotate(-89.11) scale(82.6147 2.06537)">
<stop stop-color="white"/>
<stop offset="0.5" stop-color="#282847"/>
<stop offset="1" stop-color="#050B10"/>
</radialGradient>
<radialGradient id="paint36_radial_72_160" cx="0" cy="0" r="1" gradientUnits="userSpaceOnUse" gradientTransform="translate(98.5656 289.555) rotate(-32.26) scale(82.6146 2.06535)">
<stop stop-color="white"/>
<stop offset="0.5" stop-color="#282847"/>
<stop offset="1" stop-color="#050B10"/>
</radialGradient>
<linearGradient id="paint37_linear_72_160" x1="83.7764" y1="169.818" x2="209.502" y2="169.818" gradientUnits="userSpaceOnUse">
<stop stop-color="#00E6E3"/>
<stop offset="0.5" stop-color="#0A4FE0" stop-opacity="0.8"/>
</linearGradient>
<linearGradient id="paint38_linear_72_160" x1="377.148" y1="361.442" x2="235.98" y2="454.242" gradientUnits="userSpaceOnUse">
<stop stop-color="white"/>
<stop offset="0.08" stop-color="white" stop-opacity="0.64"/>
<stop offset="0.17" stop-color="white" stop-opacity="0.3844"/>
<stop offset="0.26" stop-color="white" stop-opacity="0.2025"/>
<stop offset="0.36" stop-color="white" stop-opacity="0.0961"/>
<stop offset="0.46" stop-color="white" stop-opacity="0.04"/>
<stop offset="0.57" stop-color="white" stop-opacity="0.0121"/>
<stop offset="0.68" stop-color="white" stop-opacity="0.01"/>
<stop offset="0.82" stop-color="white" stop-opacity="0.01"/>
<stop offset="1" stop-color="white" stop-opacity="0"/>
</linearGradient>
<radialGradient id="paint39_radial_72_160" cx="0" cy="0" r="1" gradientUnits="userSpaceOnUse" gradientTransform="translate(203.998 243.871) rotate(-89.11) scale(82.6147 2.06537)">
<stop stop-color="white"/>
<stop offset="0.5" stop-color="#282847"/>
<stop offset="1" stop-color="#050B10"/>
</radialGradient>
<radialGradient id="paint40_radial_72_160" cx="0" cy="0" r="1" gradientUnits="userSpaceOnUse" gradientTransform="translate(98.5656 289.555) rotate(-32.26) scale(82.6146 2.06535)">
<stop stop-color="white"/>
<stop offset="0.5" stop-color="#282847"/>
<stop offset="1" stop-color="#050B10"/>
</radialGradient>
<linearGradient id="paint41_linear_72_160" x1="83.7764" y1="169.818" x2="209.502" y2="169.818" gradientUnits="userSpaceOnUse">
<stop stop-color="#00E6E3"/>
<stop offset="0.5" stop-color="#0A4FE0" stop-opacity="0.8"/>
</linearGradient>
<linearGradient id="paint42_linear_72_160" x1="377.148" y1="361.442" x2="235.98" y2="454.242" gradientUnits="userSpaceOnUse">
<stop stop-color="white"/>
<stop offset="0.08" stop-color="white" stop-opacity="0.64"/>
<stop offset="0.17" stop-color="white" stop-opacity="0.3844"/>
<stop offset="0.26" stop-color="white" stop-opacity="0.2025"/>
<stop offset="0.36" stop-color="white" stop-opacity="0.0961"/>
<stop offset="0.46" stop-color="white" stop-opacity="0.04"/>
<stop offset="0.57" stop-color="white" stop-opacity="0.0121"/>
<stop offset="0.68" stop-color="white" stop-opacity="0.01"/>
<stop offset="0.82" stop-color="white" stop-opacity="0.01"/>
<stop offset="1" stop-color="white" stop-opacity="0"/>
</linearGradient>
<radialGradient id="paint43_radial_72_160" cx="0" cy="0" r="1" gradientUnits="userSpaceOnUse" gradientTransform="translate(203.998 243.871) rotate(-89.11) scale(82.6147 2.06537)">
<stop stop-color="white"/>
<stop offset="0.5" stop-color="#282847"/>
<stop offset="1" stop-color="#050B10"/>
</radialGradient>
<radialGradient id="paint44_radial_72_160" cx="0" cy="0" r="1" gradientUnits="userSpaceOnUse" gradientTransform="translate(98.5656 289.555) rotate(-32.26) scale(82.6146 2.06535)">
<stop stop-color="white"/>
<stop offset="0.5" stop-color="#282847"/>
<stop offset="1" stop-color="#050B10"/>
</radialGradient>
<linearGradient id="paint45_linear_72_160" x1="83.7764" y1="169.818" x2="209.502" y2="169.818" gradientUnits="userSpaceOnUse">
<stop stop-color="#00E6E3"/>
<stop offset="0.5" stop-color="#0A4FE0" stop-opacity="0.8"/>
</linearGradient>
<linearGradient id="paint46_linear_72_160" x1="377.148" y1="361.442" x2="235.98" y2="454.242" gradientUnits="userSpaceOnUse">
<stop stop-color="white"/>
<stop offset="0.08" stop-color="white" stop-opacity="0.64"/>
<stop offset="0.17" stop-color="white" stop-opacity="0.3844"/>
<stop offset="0.26" stop-color="white" stop-opacity="0.2025"/>
<stop offset="0.36" stop-color="white" stop-opacity="0.0961"/>
<stop offset="0.46" stop-color="white" stop-opacity="0.04"/>
<stop offset="0.57" stop-color="white" stop-opacity="0.0121"/>
<stop offset="0.68" stop-color="white" stop-opacity="0.01"/>
<stop offset="0.82" stop-color="white" stop-opacity="0.01"/>
<stop offset="1" stop-color="white" stop-opacity="0"/>
</linearGradient>
<radialGradient id="paint47_radial_72_160" cx="0" cy="0" r="1" gradientUnits="userSpaceOnUse" gradientTransform="translate(203.998 243.871) rotate(-89.11) scale(82.6147 2.06537)">
<stop stop-color="white"/>
<stop offset="0.5" stop-color="#282847"/>
<stop offset="1" stop-color="#050B10"/>
</radialGradient>
<radialGradient id="paint48_radial_72_160" cx="0" cy="0" r="1" gradientUnits="userSpaceOnUse" gradientTransform="translate(98.5656 289.555) rotate(-32.26) scale(82.6146 2.06535)">
<stop stop-color="white"/>
<stop offset="0.5" stop-color="#282847"/>
<stop offset="1" stop-color="#050B10"/>
</radialGradient>
<radialGradient id="paint49_radial_72_160" cx="0" cy="0" r="1" gradientUnits="userSpaceOnUse" gradientTransform="translate(32.4397 242.008) rotate(-90) scale(82.6146 2.06542)">
<stop stop-color="white"/>
<stop offset="0.5" stop-color="#282847"/>
<stop offset="1" stop-color="#050B10"/>
</radialGradient>
<radialGradient id="paint50_radial_72_160" cx="0" cy="0" r="1" gradientUnits="userSpaceOnUse" gradientTransform="translate(153.471 299.069) rotate(-147.74) scale(69.1897 2.06533)">
<stop stop-color="white"/>
<stop offset="0.5" stop-color="#282847"/>
<stop offset="1" stop-color="#050B10"/>
</radialGradient>
<radialGradient id="paint51_radial_72_160" cx="0" cy="0" r="1" gradientUnits="userSpaceOnUse" gradientTransform="translate(129.833 65.319) rotate(-31.2) scale(74.3532 2.06536)">
<stop stop-color="white"/>
<stop offset="0.5" stop-color="#282847"/>
<stop offset="1" stop-color="#050B10"/>
</radialGradient>
</defs>
</svg>
